<!DOCTYPE svg PUBLIC "-//W3C//DTD SVG 1.1//EN" "http://www.w3.org/Graphics/SVG/1.1/DTD/svg11.dtd">
<!-- Uploaded to: SVG Repo, www.svgrepo.com, Transformed by: SVG Repo Mixer Tools -->
<svg width="800px" height="800px" viewBox="0 0 1024 1024" class="icon" version="1.1" xmlns="http://www.w3.org/2000/svg" fill="#000000">
<g id="SVGRepo_bgCarrier" stroke-width="0"/>
<g id="SVGRepo_tracerCarrier" stroke-linecap="round" stroke-linejoin="round"/>
<g id="SVGRepo_iconCarrier">
<path d="M725.333333 256m-170.666666 0a170.666667 170.666667 0 1 0 341.333333 0 170.666667 170.666667 0 1 0-341.333333 0Z" fill="#FFEB3B"/>
<path d="M704 106.666667h42.666667v298.666666h-42.666667z" fill="#FFFDE7"/>
<path d="M576 234.666667h298.666667v42.666666H576z" fill="#FFFDE7"/>
<path d="M604.650667 165.482667l30.165333-30.165334 211.2 211.2-30.165333 30.165334z" fill="#FFFDE7"/>
<path d="M634.816 376.682667l-30.165333-30.165334 211.2-211.2 30.165333 30.165334z" fill="#FFFDE7"/>
<path d="M725.333333 117.333333c76.48 0 138.666667 62.186667 138.666667 138.666667 0 76.458667-62.186667 138.666667-138.666667 138.666667a138.837333 138.837333 0 0 1-138.666666-138.666667c0-76.48 62.208-138.666667 138.666666-138.666667M725.333333 85.333333c-94.272 0-170.666667 76.394667-170.666666 170.666667s76.394667 170.666667 170.666666 170.666667 170.666667-76.394667 170.666667-170.666667-76.394667-170.666667-170.666667-170.666667z" fill="#FFC107"/>
<path d="M636.864 362.666667h31.232L746.666667 256h-160c0 42.858667 19.541333 81.216 50.197333 106.666667z" fill="#FFB300"/>
<path d="M426.666667 608.661333h42.666666V896h-42.666666z" fill="#90CAF9"/>
<path d="M618.666667 917.333333s-149.312-21.333333-149.333334-85.333333c0-64-42.688-64-42.666666 0 0 64-149.333333 85.333333-149.333334 85.333333a21.333333 21.333333 0 0 0-21.333333 21.333334h384a21.333333 21.333333 0 0 0-21.333333-21.333334zM149.333333 256l78.592 106.666667H592.213333A169.813333 169.813333 0 0 1 554.666667 256H149.333333z" fill="#90CAF9"/>
<path d="M586.666667 256H554.666667a169.813333 169.813333 0 0 0 37.546666 106.666667h44.650667a138.346667 138.346667 0 0 1-50.197333-106.666667z" fill="#FB8C00"/>
<path d="M212.202667 341.333333l205.205333 278.506667s28.224 44.245333 61.76-0.789333C512.661333 573.994667 683.797333 341.333333 683.797333 341.333333H212.202667z" fill="#F50057"/>
</g>
</svg>