<!DOCTYPE svg PUBLIC "-//W3C//DTD SVG 1.1//EN" "http://www.w3.org/Graphics/SVG/1.1/DTD/svg11.dtd">
<!-- Uploaded to: SVG Repo, www.svgrepo.com, Transformed by: SVG Repo Mixer Tools -->
<svg fill="#09298b" width="800px" height="800px" viewBox="-1.9 -1.9 22.80 22.80" xmlns="http://www.w3.org/2000/svg" class="cf-icon-svg" stroke="#09298b">
<g id="SVGRepo_bgCarrier" stroke-width="0">
<path transform="translate(-1.9, -1.9), scale(0.7125)" d="M16,30.950084285012313C19.52624816493251,30.8674810246597,23.29680002299147,30.13557646561614,25.67671721255826,27.532262502584537C27.92287832508354,25.075259959348962,27.17136418543641,21.35008074536191,27.769917932314033,18.075354092191354C28.374497130751845,14.767661799887394,30.796221175576154,11.339255047843046,29.174901633709915,8.393466995230746C27.550004002102778,5.44117788361204,23.459317254183926,5.341685077217069,20.23047143344603,4.37687526295921C17.252602059668092,3.4870595960277146,14.330054926967815,2.421585750065965,11.285878198279928,3.0480567972153576C7.811191337222244,3.763123927138951,4.134992381940324,5.055268884957702,2.2700490226418335,8.073009107261889C0.38046288014152174,11.130624813015412,1.0758933758889164,14.981796361646818,1.7262710159947243,18.51684353520055C2.3712026806582935,22.022289783219396,3.2476038330793573,25.65362386894511,5.935241934399192,27.994711583271304C8.653792769241175,30.362726070450364,12.395713301755348,31.034515617861018,16,30.950084285012313" fill="#7ed0ec" strokewidth="0"/>
</g>
<g id="SVGRepo_tracerCarrier" stroke-linecap="round" stroke-linejoin="round"/>
<g id="SVGRepo_iconCarrier">
<path d="M16.417 9.579A7.917 7.917 0 1 1 8.5 1.662a7.917 7.917 0 0 1 7.917 7.917zm-2.788-.658a1.159 1.159 0 0 0-2.318 0v1.767H5.66V8.92a1.159 1.159 0 1 0-1.43 1.127v3.333a.343.343 0 0 0 .342.342H12.4a.343.343 0 0 0 .342-.342v-3.333a1.159 1.159 0 0 0 .887-1.127zM5.097 7.063A1.954 1.954 0 0 1 6.45 8.921v.975h4.069v-.975a1.954 1.954 0 0 1 1.354-1.858v-1a.794.794 0 0 0-.792-.791H5.888a.794.794 0 0 0-.791.791z"/>
</g>
</svg>